Coordinates
version=1
nRows=15
nColumns=38
inDegrees=yes

Units are S.I. units (second, meters, Newtons, ...)
Angles are in degrees.

endheader
time	pelvis_tilt	pelvis_list	pelvis_rotation	pelvis_tx	pelvis_ty	pelvis_tz	hip_flexion_r	hip_adduction_r	hip_rotation_r	knee_angle_r	ankle_angle_r	subtalar_angle_r	mtp_angle_r	hip_flexion_l	hip_adduction_l	hip_rotation_l	knee_angle_l	ankle_angle_l	subtalar_angle_l	mtp_angle_l	lumbar_extension	lumbar_bending	lumbar_rotation	arm_flex_r	arm_add_r	arm_rot_r	elbow_flex_r	pro_sup_r	wrist_flex_r	wrist_dev_r	arm_flex_l	arm_add_l	arm_rot_l	elbow_flex_l	pro_sup_l	wrist_flex_l	wrist_dev_l
      1.56000000	      0.45636150	      0.84041524	     -0.96566287	      0.25121388	      1.05363472	     -0.27314668	     20.86733022	     -2.49870628	     -5.95415077	    -52.43236704	      1.02653493	     -6.12270622	      0.00000000	      0.22519963	      3.63954688	     -1.21037523	    -10.00051014	      8.76240663	     -1.96959253	      0.00000000	     -8.70341887	      0.03876868	      0.66810623	      4.30186647	     -7.05661113	     51.31092666	     23.46895241	     44.74921573	      0.00000000	      0.00000000	      2.90643874	     -8.28213126	     46.60093282	     28.99836902	     44.74921573	      0.00000000	      0.00000000
      1.57000000	      0.45588396	      0.63960753	     -0.60463853	      0.26283858	      1.05260512	     -0.27340340	     21.63322836	     -2.26175912	     -6.36350182	    -50.25910014	      1.37230956	     -7.04905150	      0.00000000	     -0.96040085	      3.42977192	     -0.50964879	     -9.11414240	      9.38538409	     -1.75720727	      0.00000000	     -8.82205473	      0.32073314	      0.34394848	      4.34027148	     -7.06739841	     51.31853016	     23.49673256	     44.75210102	      0.00000000	      0.00000000	      3.52238745	     -8.64877967	     46.31948206	     29.71753283	     44.75210102	      0.00000000	      0.00000000
      1.58000000	      0.50133613	      0.69210811	     -0.33618016	      0.27448594	      1.05140300	     -0.27359550	     22.35500911	     -2.33612065	     -6.64665031	    -47.93722094	      1.76219807	     -7.30136356	      0.00000000	     -1.97304023	      3.51571297	      0.11210284	     -8.64619131	      9.87104675	     -2.12133875	      0.00000000	     -9.00475094	      0.26128663	     -0.06465841	      4.48311947	     -7.04958952	     51.38023822	     23.61147463	     44.82978987	      0.00000000	      0.00000000	      1.53645187	     -9.26524949	     36.32312269	     36.80183765	     44.82978987	      0.00000000	      0.00000000
      1.59000000	      0.49544870	      0.79388493	     -0.07983588	      0.28617628	      1.04987450	     -0.27381262	     22.92927082	     -2.37744364	     -6.60714272	    -45.28339856	      2.25719751	     -7.35347170	      0.00000000	     -2.86744946	      3.61374601	      0.44261690	     -8.31324185	     10.50151557	     -1.98284829	      0.00000000	     -9.08739964	      0.18245477	     -0.34184651	      4.54901066	     -7.06686081	     51.35239898	     23.65643014	     44.83099784	      0.00000000	      0.00000000	      2.03363401	     -9.42887120	     36.24734968	     36.97153542	     44.83099784	      0.00000000	      0.00000000
      1.60000000	      0.66447096	      0.83016421	      0.17508181	      0.29794944	      1.04850937	     -0.27396790	     23.37112566	     -2.51133631	     -7.17887207	    -42.59146110	      1.98671367	     -7.71087262	      0.00000000	     -4.02954673	      3.62485781	      0.70913112	     -7.81794170	     11.13874576	     -1.84478305	      0.00000000	     -9.38775772	      0.17299990	     -0.57490182	      4.66991708	     -7.07702387	     51.32629030	     23.70547466	     44.83292357	      0.00000000	      0.00000000	      2.50410207	     -9.61455795	     36.21669745	     37.29875713	     44.83292357	      0.00000000	      0.00000000
      1.61000000	      0.72591799	      0.98410051	      0.46826069	      0.30973537	      1.04676465	     -0.27422038	     23.75168905	     -2.67215790	     -7.30429685	    -39.67112167	      2.00412510	     -7.59538180	      0.00000000	     -5.17710361	      3.77970749	      1.45155214	     -7.15098761	     11.47171378	     -2.27530592	      0.00000000	     -9.55769392	      0.05686813	     -0.90405248	      4.74583830	     -7.07030071	     51.34939752	     23.70943735	     44.84231337	      0.00000000	      0.00000000	      2.83989647	    -10.04133025	     36.27672056	     38.42800080	     44.84231337	      0.00000000	      0.00000000
      1.62000000	      0.79574480	      1.20648088	      0.75317286	      0.32165241	      1.04483421	     -0.27440143	     24.06637783	     -2.96413349	     -7.81212325	    -36.53098814	      1.78813015	     -7.50517814	      0.00000000	     -6.23198299	      3.95256818	      1.75083937	     -6.70093563	     12.05386557	     -2.04303361	      0.00000000	     -9.72468353	     -0.15525270	     -1.19706010	      4.78898666	     -7.05621865	     51.33243380	     23.75086639	     44.84365954	      0.00000000	      0.00000000	      3.32255096	    -10.19615104	     36.16914898	     38.60506608	     44.84365954	      0.00000000	      0.00000000
      1.63000000	      0.84465374	      1.32592878	      1.14409329	      0.33346465	      1.04273961	     -0.27462827	     24.28995158	     -3.11981312	     -8.16544837	    -33.25963849	      1.31853260	     -7.26395958	      0.00000000	     -7.21962236	      3.99530780	      2.18546465	     -6.33181950	     12.66581626	     -1.87128355	      0.00000000	     -9.89624452	     -0.23092775	     -1.56056810	      4.87544062	     -7.04699171	     51.31253679	     23.77651132	     44.84519033	      0.00000000	      0.00000000	      3.79815968	    -10.35745010	     36.09277810	     38.86828336	     44.84519033	      0.00000000	      0.00000000
      1.64000000	      0.87965051	      1.63492583	      1.38403178	      0.34567560	      1.04052238	     -0.27471270	     24.43367717	     -3.47483775	     -8.55404114	    -29.93165107	      1.06917325	     -6.71844659	      0.00000000	     -8.19883261	      4.25173545	      2.48508004	     -6.00282843	     13.20596679	     -1.72987154	      0.00000000	     -9.99298769	     -0.52731562	     -1.81839999	      4.87712291	     -7.02525711	     51.29842189	     23.79844858	     44.84610766	      0.00000000	      0.00000000	      4.21191194	    -10.50699637	     36.02980265	     39.07251511	     44.84610766	      0.00000000	      0.00000000
      1.65000000	      0.89133027	      1.96547619	      1.62641224	      0.35798041	      1.03811740	     -0.27475170	     24.57620716	     -3.81557489	     -8.84503260	    -26.64662863	      0.67777508	     -6.06907309	      0.00000000	     -9.13494753	      4.51588900	      2.83161600	     -5.74582480	     13.73808116	     -1.56898570	      0.00000000	    -10.07042813	     -0.86929244	     -2.03320588	      4.89162777	     -7.00720285	     51.28032129	     23.82265814	     44.84675705	      0.00000000	      0.00000000	      4.54944154	    -10.63074633	     35.98164513	     39.24224376	     44.84675705	      0.00000000	      0.00000000
      1.66000000	      1.32189356	      2.05325233	      2.03331623	      0.37067954	      1.03616010	     -0.27487266	     24.14131720	     -4.03899447	     -9.92364450	    -23.32258612	      0.48408706	     -5.02250911	      0.00000000	    -10.68317675	      4.45739089	      3.35797463	     -5.19318607	     14.30145208	     -1.48682479	      0.00000000	    -10.59997785	     -0.88497327	     -2.42932747	      4.95582789	     -6.98176557	     51.25243964	     23.79183384	     44.84854820	      0.00000000	      0.00000000	      4.92868230	    -10.82537305	     35.98574346	     39.67107651	     44.84854820	      0.00000000	      0.00000000
      1.67000000	      1.29369230	      2.40849566	      2.39631000	      0.38320718	      1.03349761	     -0.27504397	     24.22852733	     -4.41456370	    -10.41972648	    -20.12919374	      0.36376741	     -4.26804008	      0.00000000	    -11.51026229	      4.71070818	      3.76984141	     -5.08761541	     14.78694974	     -1.40635834	      0.00000000	    -10.60730033	     -1.22018232	     -2.77492172	      4.89173907	     -6.95237569	     51.23938981	     23.79071596	     44.84937496	      0.00000000	      0.00000000	      5.26642029	    -10.95337305	     35.94948437	     39.88052465	     44.84937496	      0.00000000	      0.00000000
      1.68000000	      1.43831761	      2.62089608	      2.85635669	      0.39594632	      1.03102777	     -0.27521068	     24.11107833	     -4.68846389	    -11.15925860	    -17.10833909	      0.30068088	     -3.31833050	      0.00000000	    -12.49605804	      4.75927490	      4.15095249	     -5.03860408	     15.33327698	     -1.32175001	      0.00000000	    -10.82619239	     -1.39340097	     -3.20579473	      4.86038333	     -6.91155256	     51.21847633	     23.77874958	     44.85035522	      0.00000000	      0.00000000	      5.57682924	    -11.09445159	     35.93061999	     40.11899652	     44.85035522	      0.00000000	      0.00000000
      1.69000000	      1.69756568	      2.75346187	      3.38326839	      0.40886618	      1.02861779	     -0.27540758	     23.99546663	     -5.06543281	    -13.06983565	    -14.62408168	      0.74203377	     -0.91299397	      0.00000000	    -13.77787381	      4.71936274	      5.46318983	     -4.75192622	     15.62200227	     -1.83407629	      0.00000000	    -11.16567603	     -1.43492711	     -3.68976926	      4.90867479	     -6.83136145	     51.17061901	     23.58390485	     44.85518385	      0.00000000	      0.00000000	      5.75029340	    -11.37785549	     36.04885945	     40.90733258	     44.85518385	      0.00000000	      0.00000000
      1.70000000	      1.78737252	      2.98426280	      3.89712839	      0.42176363	      1.02598385	     -0.27556344	     24.02237416	     -5.29709477	    -13.74630039	    -12.20342825	      0.74356992	     -0.28498602	      0.00000000	    -14.61573691	      4.75347088	      5.86622980	     -4.92282235	     16.23762732	     -1.71343790	      0.00000000	    -11.30748030	     -1.60943963	     -4.16271001	      4.86438209	     -6.79190562	     51.15632015	     23.57727568	     44.85640112	      0.00000000	      0.00000000	      5.99273825	    -11.47320463	     36.00632475	     41.04501241	     44.85640112	      0.00000000	      0.00000000
